solid OpenSCAD_Model
  facet normal 1 -0 0
    outer loop
      vertex 22 18 0.799999
      vertex 22 22 0
      vertex 22 22 0.799999
    endloop
  endfacet
  facet normal 1 0 0
    outer loop
      vertex 22 22 0
      vertex 22 18 0.799999
      vertex 22 18 0
    endloop
  endfacet
  facet normal 1 -0 0
    outer loop
      vertex 22 0 0.799999
      vertex 22 4 0
      vertex 22 4 0.799999
    endloop
  endfacet
  facet normal 1 0 0
    outer loop
      vertex 22 4 0
      vertex 22 0 0.799999
      vertex 22 0 0
    endloop
  endfacet
  facet normal -1 0 0
    outer loop
      vertex 22 4 0.799999
      vertex 22 18 3
      vertex 22 18 0.799999
    endloop
  endfacet
  facet normal -1 -0 0
    outer loop
      vertex 22 18 3
      vertex 22 4 0.799999
      vertex 22 4 3
    endloop
  endfacet
  facet normal 0 0 1
    outer loop
      vertex 12.3 11 0.799999
      vertex 22 18 0.799999
      vertex 22 22 0.799999
    endloop
  endfacet
  facet normal 0 0 1
    outer loop
      vertex 22 18 0.799999
      vertex 12.3 11 0.799999
      vertex 22 4 0.799999
    endloop
  endfacet
  facet normal 0 0 1
    outer loop
      vertex 12.3 0 0.799999
      vertex 22 4 0.799999
      vertex 12.3 11 0.799999
    endloop
  endfacet
  facet normal 0 0 1
    outer loop
      vertex 22 22 0.799999
      vertex 9.7 11 0.799999
      vertex 12.3 11 0.799999
    endloop
  endfacet
  facet normal -0 0 1
    outer loop
      vertex 0 22 0.799999
      vertex 9.7 11 0.799999
      vertex 22 22 0.799999
    endloop
  endfacet
  facet normal 0 0 1
    outer loop
      vertex 0 0 0.799999
      vertex 9.7 11 0.799999
      vertex 0 22 0.799999
    endloop
  endfacet
  facet normal 0 0 1
    outer loop
      vertex 9.7 11 0.799999
      vertex 0 0 0.799999
      vertex 9.7 0 0.799999
    endloop
  endfacet
  facet normal 0 0 1
    outer loop
      vertex 22 4 0.799999
      vertex 12.3 0 0.799999
      vertex 22 0 0.799999
    endloop
  endfacet
  facet normal 0 0 -1
    outer loop
      vertex 9.7 0 0
      vertex 0 0 0
      vertex 9.7 11 0
    endloop
  endfacet
  facet normal 0 0 -1
    outer loop
      vertex 48 4 0
      vertex 57.7 0 0
      vertex 48 0 0
    endloop
  endfacet
  facet normal 0 0 -1
    outer loop
      vertex 60.3 11 0
      vertex 70 0 0
      vertex 60.3 0 0
    endloop
  endfacet
  facet normal 0 0 -1
    outer loop
      vertex 70 0 0
      vertex 60.3 11 0
      vertex 70 22 0
    endloop
  endfacet
  facet normal 0 0 -1
    outer loop
      vertex 57.7 11 0
      vertex 70 22 0
      vertex 60.3 11 0
    endloop
  endfacet
  facet normal 0 0 -1
    outer loop
      vertex 57.7 0 0
      vertex 48 4 0
      vertex 57.7 11 0
    endloop
  endfacet
  facet normal 0 0 -1
    outer loop
      vertex 48 18 0
      vertex 57.7 11 0
      vertex 48 4 0
    endloop
  endfacet
  facet normal 0 0 -1
    outer loop
      vertex 48 22 0
      vertex 57.7 11 0
      vertex 48 18 0
    endloop
  endfacet
  facet normal 0 0 -1
    outer loop
      vertex 57.7 11 0
      vertex 48 22 0
      vertex 70 22 0
    endloop
  endfacet
  facet normal 0 0 -1
    outer loop
      vertex 12.3 0 0
      vertex 22 4 0
      vertex 22 0 0
    endloop
  endfacet
  facet normal 0 0 -1
    outer loop
      vertex 22 4 0
      vertex 12.3 11 0
      vertex 22 18 0
    endloop
  endfacet
  facet normal -0 0 -1
    outer loop
      vertex 22 4 0
      vertex 12.3 0 0
      vertex 12.3 11 0
    endloop
  endfacet
  facet normal -0 0 -1
    outer loop
      vertex 22 18 0
      vertex 12.3 11 0
      vertex 22 22 0
    endloop
  endfacet
  facet normal 0 0 -1
    outer loop
      vertex 9.7 11 0
      vertex 22 22 0
      vertex 12.3 11 0
    endloop
  endfacet
  facet normal 0 0 -1
    outer loop
      vertex 9.7 11 0
      vertex 0 22 0
      vertex 22 22 0
    endloop
  endfacet
  facet normal 0 0 -1
    outer loop
      vertex 0 22 0
      vertex 9.7 11 0
      vertex 0 0 0
    endloop
  endfacet
  facet normal 0 0 -1
    outer loop
      vertex 22 4 0
      vertex 48 18 0
      vertex 48 4 0
    endloop
  endfacet
  facet normal -0 0 -1
    outer loop
      vertex 48 18 0
      vertex 22 4 0
      vertex 22 18 0
    endloop
  endfacet
  facet normal -1 0 0
    outer loop
      vertex 0 0 0
      vertex 0 22 0.799999
      vertex 0 22 0
    endloop
  endfacet
  facet normal -1 -0 0
    outer loop
      vertex 0 22 0.799999
      vertex 0 0 0
      vertex 0 0 0.799999
    endloop
  endfacet
  facet normal 0 1 -0
    outer loop
      vertex 22 22 0
      vertex 0 22 0.799999
      vertex 22 22 0.799999
    endloop
  endfacet
  facet normal 0 1 0
    outer loop
      vertex 0 22 0.799999
      vertex 22 22 0
      vertex 0 22 0
    endloop
  endfacet
  facet normal 0 -1 0
    outer loop
      vertex 0 0 0
      vertex 9.7 0 0.799999
      vertex 0 0 0.799999
    endloop
  endfacet
  facet normal 0 -1 -0
    outer loop
      vertex 9.7 0 0.799999
      vertex 0 0 0
      vertex 9.7 0 0
    endloop
  endfacet
  facet normal 0 -1 0
    outer loop
      vertex 12.3 0 0
      vertex 22 0 0.799999
      vertex 12.3 0 0.799999
    endloop
  endfacet
  facet normal 0 -1 -0
    outer loop
      vertex 22 0 0.799999
      vertex 12.3 0 0
      vertex 22 0 0
    endloop
  endfacet
  facet normal -1 0 0
    outer loop
      vertex 48 4 0
      vertex 48 0 0
      vertex 48 4 3
    endloop
  endfacet
  facet normal -1 0 0
    outer loop
      vertex 48 18 3
      vertex 48 22 0
      vertex 48 18 0
    endloop
  endfacet
  facet normal -1 0 0
    outer loop
      vertex 48 22 0
      vertex 48 18 3
      vertex 48 22 3.4
    endloop
  endfacet
  facet normal -1 0 0
    outer loop
      vertex 48 4 3
      vertex 48 22 3.4
      vertex 48 18 3
    endloop
  endfacet
  facet normal -1 0 0
    outer loop
      vertex 48 4 3
      vertex 48 0 3.4
      vertex 48 22 3.4
    endloop
  endfacet
  facet normal -1 0 0
    outer loop
      vertex 48 0 3.4
      vertex 48 4 3
      vertex 48 0 0
    endloop
  endfacet
  facet normal 0 0 1
    outer loop
      vertex 29.23 10.23 3
      vertex 26.5 10.23 3
      vertex 29.23 7.5 3
    endloop
  endfacet
  facet normal 0 0 1
    outer loop
      vertex 48 18 3
      vertex 43.5 11.77 3
      vertex 48 4 3
    endloop
  endfacet
  facet normal 0 0 1
    outer loop
      vertex 48 18 3
      vertex 36.5 11.77 3
      vertex 43.5 11.77 3
    endloop
  endfacet
  facet normal 0 0 1
    outer loop
      vertex 36.5 11.77 3
      vertex 33.5 11.77 3
      vertex 36.5 10.23 3
    endloop
  endfacet
  facet normal -0 0 1
    outer loop
      vertex 30.77 14.5 3
      vertex 36.5 11.77 3
      vertex 48 18 3
    endloop
  endfacet
  facet normal 0 0 1
    outer loop
      vertex 36.5 11.77 3
      vertex 30.77 14.5 3
      vertex 33.5 11.77 3
    endloop
  endfacet
  facet normal -0 0 1
    outer loop
      vertex 22 18 3
      vertex 30.77 14.5 3
      vertex 48 18 3
    endloop
  endfacet
  facet normal 0 0 1
    outer loop
      vertex 29.23 14.5 3
      vertex 26.5 11.77 3
      vertex 29.23 11.77 3
    endloop
  endfacet
  facet normal 0 0 1
    outer loop
      vertex 26.5 11.77 3
      vertex 22 18 3
      vertex 26.5 10.23 3
    endloop
  endfacet
  facet normal 0 0 1
    outer loop
      vertex 29.23 14.5 3
      vertex 22 18 3
      vertex 26.5 11.77 3
    endloop
  endfacet
  facet normal 0 0 1
    outer loop
      vertex 30.77 14.5 3
      vertex 22 18 3
      vertex 29.23 14.5 3
    endloop
  endfacet
  facet normal -0 0 1
    outer loop
      vertex 43.5 10.23 3
      vertex 48 4 3
      vertex 43.5 11.77 3
    endloop
  endfacet
  facet normal -0 0 1
    outer loop
      vertex 36.5 10.23 3
      vertex 48 4 3
      vertex 43.5 10.23 3
    endloop
  endfacet
  facet normal 0 0 1
    outer loop
      vertex 33.5 10.23 3
      vertex 36.5 10.23 3
      vertex 33.5 11.77 3
    endloop
  endfacet
  facet normal 0 0 1
    outer loop
      vertex 30.77 7.5 3
      vertex 36.5 10.23 3
      vertex 33.5 10.23 3
    endloop
  endfacet
  facet normal 0 0 1
    outer loop
      vertex 30.77 7.5 3
      vertex 33.5 10.23 3
      vertex 30.77 10.23 3
    endloop
  endfacet
  facet normal 0 0 1
    outer loop
      vertex 36.5 10.23 3
      vertex 30.77 7.5 3
      vertex 48 4 3
    endloop
  endfacet
  facet normal 0 0 1
    outer loop
      vertex 22 4 3
      vertex 30.77 7.5 3
      vertex 29.23 7.5 3
    endloop
  endfacet
  facet normal 0 0 1
    outer loop
      vertex 30.77 7.5 3
      vertex 22 4 3
      vertex 48 4 3
    endloop
  endfacet
  facet normal 0 0 1
    outer loop
      vertex 26.5 10.23 3
      vertex 22 4 3
      vertex 29.23 7.5 3
    endloop
  endfacet
  facet normal 0 0 1
    outer loop
      vertex 22 4 3
      vertex 26.5 10.23 3
      vertex 22 18 3
    endloop
  endfacet
  facet normal 0 0 1
    outer loop
      vertex 33.5 11.77 3
      vertex 30.77 14.5 3
      vertex 30.77 11.77 3
    endloop
  endfacet
  facet normal 0 1 0
    outer loop
      vertex 48 18 3
      vertex 22 18 0.799999
      vertex 22 18 3
    endloop
  endfacet
  facet normal 0 1 -0
    outer loop
      vertex 48 18 0
      vertex 22 18 0.799999
      vertex 48 18 3
    endloop
  endfacet
  facet normal 0 1 0
    outer loop
      vertex 22 18 0.799999
      vertex 48 18 0
      vertex 22 18 0
    endloop
  endfacet
  facet normal 0 -1 0
    outer loop
      vertex 22 4 0.799999
      vertex 48 4 3
      vertex 22 4 3
    endloop
  endfacet
  facet normal 0 -1 0
    outer loop
      vertex 48 4 0
      vertex 22 4 0.799999
      vertex 22 4 0
    endloop
  endfacet
  facet normal 0 -1 0
    outer loop
      vertex 22 4 0.799999
      vertex 48 4 0
      vertex 48 4 3
    endloop
  endfacet
  facet normal 1 -0 0
    outer loop
      vertex 70 0 3.4
      vertex 70 22 0
      vertex 70 22 3.4
    endloop
  endfacet
  facet normal 1 0 0
    outer loop
      vertex 70 22 0
      vertex 70 0 3.4
      vertex 70 0 0
    endloop
  endfacet
  facet normal 0 0 1
    outer loop
      vertex 70 22 3.4
      vertex 60.3 11 3.4
      vertex 70 0 3.4
    endloop
  endfacet
  facet normal 0 0 1
    outer loop
      vertex 70 22 3.4
      vertex 57.7 11 3.4
      vertex 60.3 11 3.4
    endloop
  endfacet
  facet normal -0 0 1
    outer loop
      vertex 48 22 3.4
      vertex 57.7 11 3.4
      vertex 70 22 3.4
    endloop
  endfacet
  facet normal 0 0 1
    outer loop
      vertex 48 0 3.4
      vertex 57.7 11 3.4
      vertex 48 22 3.4
    endloop
  endfacet
  facet normal 0 0 1
    outer loop
      vertex 57.7 11 3.4
      vertex 48 0 3.4
      vertex 57.7 0 3.4
    endloop
  endfacet
  facet normal 0 0 1
    outer loop
      vertex 70 0 3.4
      vertex 60.3 11 3.4
      vertex 60.3 0 3.4
    endloop
  endfacet
  facet normal 0 1 -0
    outer loop
      vertex 70 22 0
      vertex 48 22 3.4
      vertex 70 22 3.4
    endloop
  endfacet
  facet normal 0 1 0
    outer loop
      vertex 48 22 3.4
      vertex 70 22 0
      vertex 48 22 0
    endloop
  endfacet
  facet normal 0 -1 0
    outer loop
      vertex 48 0 0
      vertex 57.7 0 3.4
      vertex 48 0 3.4
    endloop
  endfacet
  facet normal 0 -1 -0
    outer loop
      vertex 57.7 0 3.4
      vertex 48 0 0
      vertex 57.7 0 0
    endloop
  endfacet
  facet normal 0 -1 0
    outer loop
      vertex 60.3 0 0
      vertex 70 0 3.4
      vertex 60.3 0 3.4
    endloop
  endfacet
  facet normal 0 -1 -0
    outer loop
      vertex 70 0 3.4
      vertex 60.3 0 0
      vertex 70 0 0
    endloop
  endfacet
  facet normal -1 0 0
    outer loop
      vertex 12.3 0 0
      vertex 12.3 11 0.799999
      vertex 12.3 11 0
    endloop
  endfacet
  facet normal -1 -0 0
    outer loop
      vertex 12.3 11 0.799999
      vertex 12.3 0 0
      vertex 12.3 0 0.799999
    endloop
  endfacet
  facet normal 1 -0 0
    outer loop
      vertex 9.7 0 0.799999
      vertex 9.7 11 0
      vertex 9.7 11 0.799999
    endloop
  endfacet
  facet normal 1 0 0
    outer loop
      vertex 9.7 11 0
      vertex 9.7 0 0.799999
      vertex 9.7 0 0
    endloop
  endfacet
  facet normal 0 -1 0
    outer loop
      vertex 9.7 11 0
      vertex 12.3 11 0.799999
      vertex 9.7 11 0.799999
    endloop
  endfacet
  facet normal 0 -1 -0
    outer loop
      vertex 12.3 11 0.799999
      vertex 9.7 11 0
      vertex 12.3 11 0
    endloop
  endfacet
  facet normal -1 0 0
    outer loop
      vertex 60.3 0 0
      vertex 60.3 11 3.4
      vertex 60.3 11 0
    endloop
  endfacet
  facet normal -1 -0 0
    outer loop
      vertex 60.3 11 3.4
      vertex 60.3 0 0
      vertex 60.3 0 3.4
    endloop
  endfacet
  facet normal 1 -0 0
    outer loop
      vertex 57.7 0 3.4
      vertex 57.7 11 0
      vertex 57.7 11 3.4
    endloop
  endfacet
  facet normal 1 0 0
    outer loop
      vertex 57.7 11 0
      vertex 57.7 0 3.4
      vertex 57.7 0 0
    endloop
  endfacet
  facet normal 0 -1 0
    outer loop
      vertex 57.7 11 0
      vertex 60.3 11 3.4
      vertex 57.7 11 3.4
    endloop
  endfacet
  facet normal 0 -1 -0
    outer loop
      vertex 60.3 11 3.4
      vertex 57.7 11 0
      vertex 60.3 11 0
    endloop
  endfacet
  facet normal -0 0 1
    outer loop
      vertex 26.5 11.77 2.4
      vertex 29.23 10.23 2.4
      vertex 29.23 11.77 2.4
    endloop
  endfacet
  facet normal 0 0 1
    outer loop
      vertex 29.23 10.23 2.4
      vertex 26.5 11.77 2.4
      vertex 26.5 10.23 2.4
    endloop
  endfacet
  facet normal 0 0 1
    outer loop
      vertex 29.23 11.77 2.4
      vertex 30.77 11.77 2.4
      vertex 30.77 14.5 2.4
    endloop
  endfacet
  facet normal 0 0 1
    outer loop
      vertex 30.77 11.77 2.4
      vertex 29.23 11.77 2.4
      vertex 30.77 10.23 2.4
    endloop
  endfacet
  facet normal 0 0 1
    outer loop
      vertex 29.23 11.77 2.4
      vertex 30.77 14.5 2.4
      vertex 29.23 14.5 2.4
    endloop
  endfacet
  facet normal 0 0 1
    outer loop
      vertex 29.23 10.23 2.4
      vertex 30.77 10.23 2.4
      vertex 29.23 11.77 2.4
    endloop
  endfacet
  facet normal 0 0 1
    outer loop
      vertex 30.77 10.23 2.4
      vertex 29.23 10.23 2.4
      vertex 30.77 7.5 2.4
    endloop
  endfacet
  facet normal 0 0 1
    outer loop
      vertex 30.77 7.5 2.4
      vertex 29.23 10.23 2.4
      vertex 29.23 7.5 2.4
    endloop
  endfacet
  facet normal -0 0 1
    outer loop
      vertex 30.77 11.77 2.4
      vertex 33.5 10.23 2.4
      vertex 33.5 11.77 2.4
    endloop
  endfacet
  facet normal 0 0 1
    outer loop
      vertex 33.5 10.23 2.4
      vertex 30.77 11.77 2.4
      vertex 30.77 10.23 2.4
    endloop
  endfacet
  facet normal 0 1 -0
    outer loop
      vertex 33.5 10.23 2.4
      vertex 30.77 10.23 3
      vertex 33.5 10.23 3
    endloop
  endfacet
  facet normal 0 1 0
    outer loop
      vertex 30.77 10.23 3
      vertex 33.5 10.23 2.4
      vertex 30.77 10.23 2.4
    endloop
  endfacet
  facet normal -1 0 0
    outer loop
      vertex 33.5 10.23 2.4
      vertex 33.5 11.77 3
      vertex 33.5 11.77 2.4
    endloop
  endfacet
  facet normal -1 -0 0
    outer loop
      vertex 33.5 11.77 3
      vertex 33.5 10.23 2.4
      vertex 33.5 10.23 3
    endloop
  endfacet
  facet normal 0 -1 0
    outer loop
      vertex 30.77 11.77 2.4
      vertex 33.5 11.77 3
      vertex 30.77 11.77 3
    endloop
  endfacet
  facet normal 0 -1 -0
    outer loop
      vertex 33.5 11.77 3
      vertex 30.77 11.77 2.4
      vertex 33.5 11.77 2.4
    endloop
  endfacet
  facet normal -1 0 0
    outer loop
      vertex 30.77 11.77 2.4
      vertex 30.77 14.5 3
      vertex 30.77 14.5 2.4
    endloop
  endfacet
  facet normal -1 -0 0
    outer loop
      vertex 30.77 14.5 3
      vertex 30.77 11.77 2.4
      vertex 30.77 11.77 3
    endloop
  endfacet
  facet normal 0 -1 0
    outer loop
      vertex 29.23 14.5 2.4
      vertex 30.77 14.5 3
      vertex 29.23 14.5 3
    endloop
  endfacet
  facet normal 0 -1 -0
    outer loop
      vertex 30.77 14.5 3
      vertex 29.23 14.5 2.4
      vertex 30.77 14.5 2.4
    endloop
  endfacet
  facet normal 1 -0 0
    outer loop
      vertex 29.23 11.77 3
      vertex 29.23 14.5 2.4
      vertex 29.23 14.5 3
    endloop
  endfacet
  facet normal 1 0 0
    outer loop
      vertex 29.23 14.5 2.4
      vertex 29.23 11.77 3
      vertex 29.23 11.77 2.4
    endloop
  endfacet
  facet normal 0 -1 0
    outer loop
      vertex 26.5 11.77 2.4
      vertex 29.23 11.77 3
      vertex 26.5 11.77 3
    endloop
  endfacet
  facet normal 0 -1 -0
    outer loop
      vertex 29.23 11.77 3
      vertex 26.5 11.77 2.4
      vertex 29.23 11.77 2.4
    endloop
  endfacet
  facet normal 1 -0 0
    outer loop
      vertex 26.5 10.23 3
      vertex 26.5 11.77 2.4
      vertex 26.5 11.77 3
    endloop
  endfacet
  facet normal 1 0 0
    outer loop
      vertex 26.5 11.77 2.4
      vertex 26.5 10.23 3
      vertex 26.5 10.23 2.4
    endloop
  endfacet
  facet normal 0 1 -0
    outer loop
      vertex 29.23 10.23 2.4
      vertex 26.5 10.23 3
      vertex 29.23 10.23 3
    endloop
  endfacet
  facet normal 0 1 0
    outer loop
      vertex 26.5 10.23 3
      vertex 29.23 10.23 2.4
      vertex 26.5 10.23 2.4
    endloop
  endfacet
  facet normal 1 -0 0
    outer loop
      vertex 29.23 7.5 3
      vertex 29.23 10.23 2.4
      vertex 29.23 10.23 3
    endloop
  endfacet
  facet normal 1 0 0
    outer loop
      vertex 29.23 10.23 2.4
      vertex 29.23 7.5 3
      vertex 29.23 7.5 2.4
    endloop
  endfacet
  facet normal 0 1 -0
    outer loop
      vertex 30.77 7.5 2.4
      vertex 29.23 7.5 3
      vertex 30.77 7.5 3
    endloop
  endfacet
  facet normal 0 1 0
    outer loop
      vertex 29.23 7.5 3
      vertex 30.77 7.5 2.4
      vertex 29.23 7.5 2.4
    endloop
  endfacet
  facet normal -1 0 0
    outer loop
      vertex 30.77 7.5 2.4
      vertex 30.77 10.23 3
      vertex 30.77 10.23 2.4
    endloop
  endfacet
  facet normal -1 -0 0
    outer loop
      vertex 30.77 10.23 3
      vertex 30.77 7.5 2.4
      vertex 30.77 7.5 3
    endloop
  endfacet
  facet normal -0 0 1
    outer loop
      vertex 36.5 11.77 2.4
      vertex 43.5 10.23 2.4
      vertex 43.5 11.77 2.4
    endloop
  endfacet
  facet normal 0 0 1
    outer loop
      vertex 43.5 10.23 2.4
      vertex 36.5 11.77 2.4
      vertex 36.5 10.23 2.4
    endloop
  endfacet
  facet normal 1 -0 0
    outer loop
      vertex 36.5 10.23 3
      vertex 36.5 11.77 2.4
      vertex 36.5 11.77 3
    endloop
  endfacet
  facet normal 1 0 0
    outer loop
      vertex 36.5 11.77 2.4
      vertex 36.5 10.23 3
      vertex 36.5 10.23 2.4
    endloop
  endfacet
  facet normal 0 -1 0
    outer loop
      vertex 36.5 11.77 2.4
      vertex 43.5 11.77 3
      vertex 36.5 11.77 3
    endloop
  endfacet
  facet normal 0 -1 -0
    outer loop
      vertex 43.5 11.77 3
      vertex 36.5 11.77 2.4
      vertex 43.5 11.77 2.4
    endloop
  endfacet
  facet normal -1 0 0
    outer loop
      vertex 43.5 10.23 2.4
      vertex 43.5 11.77 3
      vertex 43.5 11.77 2.4
    endloop
  endfacet
  facet normal -1 -0 0
    outer loop
      vertex 43.5 11.77 3
      vertex 43.5 10.23 2.4
      vertex 43.5 10.23 3
    endloop
  endfacet
  facet normal 0 1 -0
    outer loop
      vertex 43.5 10.23 2.4
      vertex 36.5 10.23 3
      vertex 43.5 10.23 3
    endloop
  endfacet
  facet normal 0 1 0
    outer loop
      vertex 36.5 10.23 3
      vertex 43.5 10.23 2.4
      vertex 36.5 10.23 2.4
    endloop
  endfacet
endsolid OpenSCAD_Model
